<svg width="200" height="31" viewBox="0 0 200 31" fill="none" xmlns="http://www.w3.org/2000/svg">
<path d="M0 0.5H25.7143V9.32353H0V0.5Z" fill="#0F0F0F"/>
<path d="M8.48571 11.0882H25.7143V19.9118H8.48571V11.0882Z" fill="#0F0F0F"/>
<path d="M6.42857 11.0882H0V19.9118H6.42857V11.0882Z" fill="#7700FF"/>
<path d="M0 21.6765H25.7143V30.5H0V21.6765Z" fill="#0F0F0F"/>
<path d="M37.0343 17.5L33.8143 3.74H38.4143L39.6143 9.62C39.641 9.72667 39.6743 9.89333 39.7143 10.12C39.7543 10.3333 39.801 10.5733 39.8543 10.84C39.9076 11.0933 39.9543 11.3267 39.9943 11.54H40.0743C40.101 11.42 40.1276 11.28 40.1543 11.12C40.1943 10.9467 40.2276 10.7733 40.2543 10.6C40.2943 10.4267 40.3276 10.2533 40.3543 10.08C40.3943 9.90667 40.4276 9.75333 40.4543 9.62L41.6343 3.74H45.9943L47.2543 9.62C47.281 9.75333 47.3143 9.93333 47.3543 10.16C47.4076 10.3867 47.461 10.6267 47.5143 10.88C47.5676 11.12 47.6143 11.34 47.6543 11.54H47.7343C47.761 11.4067 47.7876 11.26 47.8143 11.1C47.8543 10.9267 47.8876 10.7533 47.9143 10.58C47.941 10.4067 47.9676 10.24 47.9943 10.08C48.0343 9.90667 48.0676 9.75333 48.0943 9.62L49.2143 3.74H53.6143L50.3943 17.5H45.5343L44.1743 11.06C44.1476 10.8867 44.1076 10.6867 44.0543 10.46C44.001 10.22 43.9476 9.98 43.8943 9.74C43.841 9.5 43.7943 9.29333 43.7543 9.12H43.6743C43.6343 9.28 43.5876 9.48 43.5343 9.72C43.4943 9.94667 43.4476 10.18 43.3943 10.42C43.341 10.6467 43.2943 10.86 43.2543 11.06L41.8943 17.5H37.0343ZM59.4229 17.74C58.1562 17.74 57.0562 17.5467 56.1229 17.16C55.2029 16.76 54.4896 16.1533 53.9829 15.34C53.4896 14.5267 53.2429 13.4867 53.2429 12.22C53.2429 10.98 53.4896 9.95333 53.9829 9.14C54.4762 8.32667 55.1629 7.72 56.0429 7.32C56.9362 6.90667 57.9829 6.7 59.1829 6.7C60.4496 6.7 61.5229 6.9 62.4029 7.3C63.2962 7.68667 63.9762 8.28667 64.4429 9.1C64.9096 9.91333 65.1429 10.9533 65.1429 12.22V12.9H57.2229C57.2229 13.38 57.2896 13.7933 57.4229 14.14C57.5696 14.4867 57.7962 14.7533 58.1029 14.94C58.4229 15.1133 58.8362 15.2 59.3429 15.2C59.7029 15.2 60.0029 15.16 60.2429 15.08C60.4962 15 60.6962 14.8933 60.8429 14.76C61.0029 14.6133 61.1162 14.4467 61.1829 14.26C61.2496 14.0733 61.2829 13.8733 61.2829 13.66H65.1429C65.1429 14.2867 65.0229 14.8533 64.7829 15.36C64.5429 15.8667 64.1829 16.3 63.7029 16.66C63.2229 17.0067 62.6229 17.2733 61.9029 17.46C61.1962 17.6467 60.3696 17.74 59.4229 17.74ZM57.2429 11.02H61.1229C61.1229 10.74 61.0829 10.4933 61.0029 10.28C60.9229 10.0533 60.8029 9.86667 60.6429 9.72C60.4962 9.56 60.3096 9.44 60.0829 9.36C59.8696 9.28 59.6229 9.24 59.3429 9.24C58.9029 9.24 58.5362 9.31333 58.2429 9.46C57.9496 9.60667 57.7229 9.81333 57.5629 10.08C57.4029 10.3333 57.2962 10.6467 57.2429 11.02ZM74.0227 17.74C73.3427 17.74 72.7094 17.6 72.1227 17.32C71.5494 17.04 71.0894 16.6 70.7427 16H70.6027L70.3227 17.5H67.0827V3H71.0627V7.92H71.2027C71.4161 7.65333 71.6694 7.43333 71.9627 7.26C72.2561 7.07333 72.5761 6.93333 72.9227 6.84C73.2827 6.74667 73.6494 6.7 74.0227 6.7C74.9561 6.7 75.7561 6.90667 76.4227 7.32C77.0894 7.72 77.5961 8.32667 77.9427 9.14C78.3027 9.95333 78.4827 10.9733 78.4827 12.2C78.4827 13.44 78.3027 14.4733 77.9427 15.3C77.5961 16.1133 77.0894 16.7267 76.4227 17.14C75.7561 17.54 74.9561 17.74 74.0227 17.74ZM72.7827 14.8C73.1961 14.8 73.5294 14.72 73.7827 14.56C74.0361 14.3867 74.2161 14.1467 74.3227 13.84C74.4427 13.5333 74.5027 13.1733 74.5027 12.76V11.7C74.5027 11.2867 74.4427 10.9267 74.3227 10.62C74.2161 10.3133 74.0361 10.0733 73.7827 9.9C73.5294 9.72667 73.1961 9.64 72.7827 9.64C72.4761 9.64 72.2094 9.7 71.9827 9.82C71.7561 9.94 71.5694 10.1067 71.4227 10.32C71.2894 10.52 71.1894 10.76 71.1227 11.04C71.0561 11.3067 71.0227 11.5933 71.0227 11.9V12.56C71.0227 12.9733 71.0827 13.3533 71.2027 13.7C71.3227 14.0333 71.5094 14.3 71.7627 14.5C72.0294 14.7 72.3694 14.8 72.7827 14.8ZM85.2826 17.74C84.6426 17.74 84.0026 17.6733 83.3626 17.54C82.7359 17.42 82.1559 17.2267 81.6226 16.96C81.1026 16.68 80.6826 16.3267 80.3626 15.9C80.0426 15.4733 79.8826 14.9533 79.8826 14.34C79.8826 14.3 79.8826 14.26 79.8826 14.22C79.8826 14.1667 79.8892 14.1133 79.9026 14.06H83.6026C83.5892 14.1 83.5826 14.14 83.5826 14.18C83.5826 14.22 83.5826 14.2533 83.5826 14.28C83.5959 14.52 83.6759 14.72 83.8226 14.88C83.9826 15.04 84.1892 15.16 84.4426 15.24C84.6959 15.32 84.9759 15.36 85.2826 15.36C85.4692 15.36 85.6892 15.3467 85.9426 15.32C86.2092 15.2933 86.4426 15.2267 86.6426 15.12C86.8426 15.0133 86.9426 14.8333 86.9426 14.58C86.9426 14.3533 86.8226 14.1867 86.5826 14.08C86.3559 13.96 86.0492 13.8667 85.6626 13.8C85.2892 13.72 84.8759 13.64 84.4226 13.56C83.9292 13.48 83.4292 13.38 82.9226 13.26C82.4292 13.1267 81.9692 12.9467 81.5426 12.72C81.1159 12.48 80.7692 12.1667 80.5026 11.78C80.2492 11.3933 80.1226 10.8933 80.1226 10.28C80.1226 9.58667 80.2626 9.00667 80.5426 8.54C80.8359 8.07333 81.2292 7.70667 81.7226 7.44C82.2292 7.16 82.7959 6.96667 83.4226 6.86C84.0626 6.74 84.7292 6.68 85.4226 6.68C86.0226 6.68 86.6159 6.74 87.2026 6.86C87.8026 6.96667 88.3492 7.14667 88.8426 7.4C89.3359 7.64 89.7292 7.96 90.0226 8.36C90.3159 8.76 90.4626 9.24667 90.4626 9.82C90.4626 9.86 90.4626 9.91333 90.4626 9.98C90.4626 10.0333 90.4559 10.0733 90.4426 10.1H86.7826V9.94C86.7826 9.74 86.7092 9.58 86.5626 9.46C86.4292 9.32667 86.2492 9.23333 86.0226 9.18C85.8092 9.11333 85.5892 9.08 85.3626 9.08C85.2826 9.08 85.1626 9.08667 85.0026 9.1C84.8426 9.1 84.6759 9.12 84.5026 9.16C84.3426 9.2 84.2026 9.26667 84.0826 9.36C83.9759 9.45333 83.9226 9.58667 83.9226 9.76C83.9226 9.92 83.9959 10.0533 84.1426 10.16C84.3026 10.2533 84.5092 10.3333 84.7626 10.4C85.0292 10.4533 85.3226 10.5133 85.6426 10.58C86.1492 10.6733 86.6959 10.7667 87.2826 10.86C87.8692 10.94 88.4226 11.0867 88.9426 11.3C89.4759 11.5 89.9092 11.8133 90.2426 12.24C90.5759 12.6533 90.7426 13.24 90.7426 14C90.7426 14.72 90.5959 15.3267 90.3026 15.82C90.0092 16.3 89.6092 16.68 89.1026 16.96C88.5959 17.24 88.0092 17.44 87.3426 17.56C86.6892 17.68 86.0026 17.74 85.2826 17.74ZM92.6291 5.7V3H96.6091V5.7H92.6291ZM92.6291 17.5V6.94H96.6091V17.5H92.6291ZM103.496 17.74C102.776 17.74 102.136 17.66 101.576 17.5C101.029 17.3267 100.603 17.0333 100.296 16.62C99.9892 16.2067 99.8359 15.64 99.8359 14.92V9.64H98.3559V6.94H99.9959L100.856 3.74H103.816V6.94H106.056V9.64H103.816V13.66C103.816 14.1133 103.889 14.46 104.036 14.7C104.183 14.9267 104.483 15.04 104.936 15.04H106.056V17.38C105.843 17.4467 105.576 17.5067 105.256 17.56C104.949 17.6267 104.636 17.6733 104.316 17.7C104.009 17.7267 103.736 17.74 103.496 17.74ZM113.603 17.74C112.336 17.74 111.236 17.5467 110.303 17.16C109.383 16.76 108.669 16.1533 108.163 15.34C107.669 14.5267 107.423 13.4867 107.423 12.22C107.423 10.98 107.669 9.95333 108.163 9.14C108.656 8.32667 109.343 7.72 110.223 7.32C111.116 6.90667 112.163 6.7 113.363 6.7C114.629 6.7 115.703 6.9 116.583 7.3C117.476 7.68667 118.156 8.28667 118.623 9.1C119.089 9.91333 119.323 10.9533 119.323 12.22V12.9H111.403C111.403 13.38 111.469 13.7933 111.603 14.14C111.749 14.4867 111.976 14.7533 112.283 14.94C112.603 15.1133 113.016 15.2 113.523 15.2C113.883 15.2 114.183 15.16 114.423 15.08C114.676 15 114.876 14.8933 115.023 14.76C115.183 14.6133 115.296 14.4467 115.363 14.26C115.429 14.0733 115.463 13.8733 115.463 13.66H119.323C119.323 14.2867 119.203 14.8533 118.963 15.36C118.723 15.8667 118.363 16.3 117.883 16.66C117.403 17.0067 116.803 17.2733 116.083 17.46C115.376 17.6467 114.549 17.74 113.603 17.74ZM111.423 11.02H115.303C115.303 10.74 115.263 10.4933 115.183 10.28C115.103 10.0533 114.983 9.86667 114.823 9.72C114.676 9.56 114.489 9.44 114.263 9.36C114.049 9.28 113.803 9.24 113.523 9.24C113.083 9.24 112.716 9.31333 112.423 9.46C112.129 9.60667 111.903 9.81333 111.743 10.08C111.583 10.3333 111.476 10.6467 111.423 11.02Z" fill="#7700FF"/>
<path d="M125.262 17.5L120.382 3.74H125.102L127.002 10.1C127.056 10.2733 127.129 10.5267 127.222 10.86C127.316 11.1933 127.416 11.5467 127.522 11.92C127.642 12.2933 127.742 12.6333 127.822 12.94H127.982C128.062 12.66 128.156 12.34 128.262 11.98C128.369 11.62 128.469 11.2733 128.562 10.94C128.669 10.5933 128.749 10.3133 128.802 10.1L130.722 3.74H135.242L130.382 17.5H125.262ZM136.809 5.7V3H140.789V5.7H136.809ZM136.809 17.5V6.94H140.789V17.5H136.809ZM143.196 17.5V2.98H147.176V10.98L150.556 6.94H155.196L151.296 11.2L155.296 17.5H150.776L148.556 13.88L147.176 15.22V17.5H143.196ZM156.535 17.5V6.94H159.795L160.055 8.54H160.195C160.369 8.14 160.589 7.8 160.855 7.52C161.135 7.24 161.455 7.03333 161.815 6.9C162.175 6.75333 162.555 6.68 162.955 6.68C163.222 6.68 163.462 6.70667 163.675 6.76C163.889 6.81333 164.042 6.86667 164.135 6.92V10.26H162.855C162.429 10.26 162.062 10.32 161.755 10.44C161.462 10.5467 161.222 10.7133 161.035 10.94C160.862 11.1533 160.729 11.42 160.635 11.74C160.555 12.0467 160.515 12.4 160.515 12.8V17.5H156.535ZM170.927 17.74C169.66 17.74 168.56 17.5467 167.627 17.16C166.707 16.76 165.993 16.1533 165.487 15.34C164.993 14.5267 164.747 13.4867 164.747 12.22C164.747 10.98 164.993 9.95333 165.487 9.14C165.98 8.32667 166.667 7.72 167.547 7.32C168.44 6.90667 169.487 6.7 170.687 6.7C171.953 6.7 173.027 6.9 173.907 7.3C174.8 7.68667 175.48 8.28667 175.947 9.1C176.413 9.91333 176.647 10.9533 176.647 12.22V12.9H168.727C168.727 13.38 168.793 13.7933 168.927 14.14C169.073 14.4867 169.3 14.7533 169.607 14.94C169.927 15.1133 170.34 15.2 170.847 15.2C171.207 15.2 171.507 15.16 171.747 15.08C172 15 172.2 14.8933 172.347 14.76C172.507 14.6133 172.62 14.4467 172.687 14.26C172.753 14.0733 172.787 13.8733 172.787 13.66H176.647C176.647 14.2867 176.527 14.8533 176.287 15.36C176.047 15.8667 175.687 16.3 175.207 16.66C174.727 17.0067 174.127 17.2733 173.407 17.46C172.7 17.6467 171.873 17.74 170.927 17.74ZM168.747 11.02H172.627C172.627 10.74 172.587 10.4933 172.507 10.28C172.427 10.0533 172.307 9.86667 172.147 9.72C172 9.56 171.813 9.44 171.587 9.36C171.373 9.28 171.127 9.24 170.847 9.24C170.407 9.24 170.04 9.31333 169.747 9.46C169.453 9.60667 169.227 9.81333 169.067 10.08C168.907 10.3333 168.8 10.6467 168.747 11.02ZM183.047 17.74C182.327 17.74 181.687 17.66 181.127 17.5C180.58 17.3267 180.153 17.0333 179.847 16.62C179.54 16.2067 179.387 15.64 179.387 14.92V9.64H177.907V6.94H179.547L180.407 3.74H183.367V6.94H185.607V9.64H183.367V13.66C183.367 14.1133 183.44 14.46 183.587 14.7C183.733 14.9267 184.033 15.04 184.487 15.04H185.607V17.38C185.393 17.4467 185.127 17.5067 184.807 17.56C184.5 17.6267 184.187 17.6733 183.867 17.7C183.56 17.7267 183.287 17.74 183.047 17.74ZM190.573 17.74C190.027 17.74 189.527 17.6867 189.073 17.58C188.62 17.4867 188.227 17.3267 187.893 17.1C187.56 16.86 187.3 16.5533 187.113 16.18C186.94 15.7933 186.853 15.3267 186.853 14.78C186.853 13.9933 187.013 13.3533 187.333 12.86C187.667 12.3667 188.147 11.9867 188.773 11.72C189.4 11.4533 190.16 11.2733 191.053 11.18C191.96 11.0733 192.993 11.02 194.153 11.02V10.5C194.153 10.2067 194.08 9.97333 193.933 9.8C193.8 9.61333 193.62 9.47333 193.393 9.38C193.167 9.28667 192.907 9.24 192.613 9.24C192.387 9.24 192.153 9.26667 191.913 9.32C191.673 9.37333 191.473 9.46667 191.313 9.6C191.167 9.73333 191.093 9.92 191.093 10.16V10.24H187.173C187.16 10.1867 187.153 10.14 187.153 10.1C187.153 10.06 187.153 10.0133 187.153 9.96C187.153 9.30667 187.36 8.74 187.773 8.26C188.2 7.76667 188.82 7.38667 189.633 7.12C190.46 6.84 191.473 6.7 192.673 6.7C193.647 6.7 194.547 6.80667 195.373 7.02C196.2 7.23333 196.867 7.59333 197.373 8.1C197.88 8.59333 198.133 9.27333 198.133 10.14V14.26C198.133 14.4733 198.187 14.66 198.293 14.82C198.4 14.9667 198.56 15.04 198.773 15.04H199.493V17.34C199.333 17.4333 199.067 17.52 198.693 17.6C198.333 17.6933 197.907 17.74 197.413 17.74C196.88 17.74 196.413 17.6867 196.013 17.58C195.613 17.4733 195.287 17.32 195.033 17.12C194.793 16.92 194.627 16.6867 194.533 16.42H194.393C194.113 16.6733 193.787 16.9 193.413 17.1C193.053 17.3 192.64 17.4533 192.173 17.56C191.707 17.68 191.173 17.74 190.573 17.74ZM192.193 15.26C192.447 15.26 192.687 15.2267 192.913 15.16C193.153 15.08 193.367 14.98 193.553 14.86C193.74 14.7267 193.887 14.5733 193.993 14.4C194.1 14.2133 194.153 14.0133 194.153 13.8V12.9C193.367 12.9 192.727 12.96 192.233 13.08C191.753 13.2 191.4 13.36 191.173 13.56C190.947 13.76 190.833 13.9933 190.833 14.26C190.833 14.5267 190.9 14.7333 191.033 14.88C191.167 15.0267 191.333 15.1267 191.533 15.18C191.747 15.2333 191.967 15.26 192.193 15.26Z" fill="#0F0F0F"/>
<path d="M34.5743 28.5V21.64H39.4343V22.46H35.5243V24.66H39.0843V25.47H35.5243V28.5H34.5743ZM42.6973 28.5V21.64H43.6473V28.5H42.6973ZM47.3634 28.5V21.64H48.2834L51.6134 26.16C51.6467 26.2 51.69 26.26 51.7434 26.34C51.7967 26.42 51.85 26.5 51.9034 26.58C51.9567 26.6533 52 26.72 52.0334 26.78H52.0734C52.0734 26.6733 52.0734 26.57 52.0734 26.47C52.0734 26.3633 52.0734 26.26 52.0734 26.16V21.64H53.0034V28.5H52.1334L48.7634 23.9C48.7167 23.8267 48.6467 23.7233 48.5534 23.59C48.4667 23.4567 48.3934 23.35 48.3334 23.27H48.2834C48.2834 23.3767 48.2834 23.4833 48.2834 23.59C48.2834 23.69 48.2834 23.7933 48.2834 23.9V28.5H47.3634ZM55.9366 28.5L58.6466 21.64H59.8966L62.6166 28.5H61.5866L60.9166 26.8H57.5766L56.9166 28.5H55.9366ZM57.8866 25.99H60.5966L59.7666 23.84C59.7466 23.78 59.7166 23.6967 59.6766 23.59C59.6366 23.4833 59.5933 23.3667 59.5466 23.24C59.5 23.1067 59.4533 22.9733 59.4066 22.84C59.36 22.7 59.3166 22.5733 59.2766 22.46H59.2166C59.17 22.5933 59.1166 22.7467 59.0566 22.92C58.9966 23.0933 58.9366 23.2633 58.8766 23.43C58.8166 23.59 58.7666 23.7267 58.7266 23.84L57.8866 25.99ZM65.543 28.5V21.64H66.463L69.793 26.16C69.8264 26.2 69.8697 26.26 69.923 26.34C69.9764 26.42 70.0297 26.5 70.083 26.58C70.1364 26.6533 70.1797 26.72 70.213 26.78H70.253C70.253 26.6733 70.253 26.57 70.253 26.47C70.253 26.3633 70.253 26.26 70.253 26.16V21.64H71.183V28.5H70.313L66.943 23.9C66.8964 23.8267 66.8264 23.7233 66.733 23.59C66.6464 23.4567 66.573 23.35 66.513 23.27H66.463C66.463 23.3767 66.463 23.4833 66.463 23.59C66.463 23.69 66.463 23.7933 66.463 23.9V28.5H65.543ZM77.8363 28.62C77.1363 28.62 76.543 28.4933 76.0563 28.24C75.5697 27.98 75.1963 27.59 74.9363 27.07C74.683 26.5433 74.5563 25.8767 74.5563 25.07C74.5563 23.8767 74.8463 22.9867 75.4263 22.4C76.0063 21.8133 76.813 21.52 77.8463 21.52C78.433 21.52 78.953 21.6167 79.4063 21.81C79.8597 21.9967 80.213 22.2833 80.4663 22.67C80.7263 23.05 80.8563 23.53 80.8563 24.11H79.8963C79.8963 23.71 79.8097 23.38 79.6363 23.12C79.4697 22.86 79.233 22.6667 78.9263 22.54C78.6197 22.4067 78.2597 22.34 77.8463 22.34C77.3663 22.34 76.953 22.4333 76.6063 22.62C76.2597 22.8067 75.9963 23.0967 75.8163 23.49C75.6363 23.8767 75.5463 24.3767 75.5463 24.99V25.2C75.5463 25.8067 75.6363 26.3033 75.8163 26.69C75.9963 27.07 76.2563 27.35 76.5963 27.53C76.943 27.71 77.3597 27.8 77.8463 27.8C78.273 27.8 78.6397 27.7367 78.9463 27.61C79.2597 27.4833 79.4997 27.29 79.6663 27.03C79.8397 26.7633 79.9263 26.43 79.9263 26.03H80.8563C80.8563 26.6233 80.723 27.11 80.4563 27.49C80.1963 27.87 79.8397 28.1533 79.3863 28.34C78.933 28.5267 78.4163 28.62 77.8363 28.62ZM84.1817 28.5V21.64H89.4617V22.46H85.1317V24.58H89.0217V25.4H85.1317V27.68H89.5217V28.5H84.1817Z" fill="black"/>
</svg>
